# xmcd
#
# Track frame offsets:
#	150
#	10965
#	28083
#	47606
#	60834
#	81765
#	109033
#	143678
#	165553
#	186699
#	203645
#	250800
#	274054
#
# Disc length: 4092 seconds
#
# Revision: 1
# Processed by: cddbd v1.5.1PL2 Copyright (c) Steve Scherf et al.
# Submitted via: EasyCDDAExtractor 9.0.0.1
#
DISCID=aa0ffa0d
DTITLE=Uriah Heep - Arrow Classic Rock Lichtenvoorde 10-06-06
DYEAR=2006
DGENRE=Hard Rock
TTITLE0=Intro
TTITLE1=So Tired
TTITLE2=Cry Freedom
TTITLE3=Falling In Love
TTITLE4=Words In The Distance
TTITLE5=Between Two Worlds
TTITLE6=Stealin'
TTITLE7=Free Me
TTITLE8=Sunrise
TTITLE9=Gypsy
TTITLE10=July Morning
TTITLE11=Easy Livin'
TTITLE12=Lady In Black
EXTD=
EXTT0=
EXTT1=
EXTT2=
EXTT3=
EXTT4=
EXTT5=
EXTT6=
EXTT7=
EXTT8=
EXTT9=
EXTT10=
EXTT11=
EXTT12=
PLAYORDER=
